<svg width="30" height="26" viewBox="0 0 30 26" fill="none" xmlns="http://www.w3.org/2000/svg">
<path fill-rule="evenodd" clip-rule="evenodd" d="M15 1.42857C15.3945 1.42857 15.7143 1.10877 15.7143 0.714286C15.7143 0.319797 15.3945 0 15 0C14.6055 0 14.2857 0.319797 14.2857 0.714286C14.2857 1.10877 14.6055 1.42857 15 1.42857ZM23.5714 5C23.9659 5 24.2857 4.6802 24.2857 4.28571C24.2857 3.89123 23.9659 3.57143 23.5714 3.57143C23.1769 3.57143 22.8571 3.89123 22.8571 4.28571C22.8571 4.6802 23.1769 5 23.5714 5ZM14.7619 15.9524C16.3399 15.9524 17.619 14.6732 17.619 13.0952C17.619 11.5173 16.3399 10.2381 14.7619 10.2381C13.1839 10.2381 11.9048 11.5173 11.9048 13.0952C11.9048 14.6732 13.1839 15.9524 14.7619 15.9524ZM19.0476 13.8095C19.4421 13.8095 19.7619 13.4897 19.7619 13.0952C19.7619 12.7008 19.4421 12.381 19.0476 12.381C18.6531 12.381 18.3333 12.7008 18.3333 13.0952C18.3333 13.4897 18.6531 13.8095 19.0476 13.8095ZM30 13.0952C30 13.4897 29.6802 13.8095 29.2857 13.8095C28.8912 13.8095 28.5714 13.4897 28.5714 13.0952C28.5714 12.7008 28.8912 12.381 29.2857 12.381C29.6802 12.381 30 12.7008 30 13.0952ZM26.9048 13.8095C27.2993 13.8095 27.619 13.4897 27.619 13.0952C27.619 12.7008 27.2993 12.381 26.9048 12.381C26.5103 12.381 26.1905 12.7008 26.1905 13.0952C26.1905 13.4897 26.5103 13.8095 26.9048 13.8095ZM3.33333 13.0952C3.33333 13.4897 3.01354 13.8095 2.61905 13.8095C2.22456 13.8095 1.90476 13.4897 1.90476 13.0952C1.90476 12.7008 2.22456 12.381 2.61905 12.381C3.01354 12.381 3.33333 12.7008 3.33333 13.0952ZM6.90476 21.6667C6.90476 22.0612 6.58497 22.381 6.19048 22.381C5.79599 22.381 5.47619 22.0612 5.47619 21.6667C5.47619 21.2722 5.79599 20.9524 6.19048 20.9524C6.58497 20.9524 6.90476 21.2722 6.90476 21.6667ZM15.7143 25.2381C15.7143 25.6326 15.3945 25.9524 15 25.9524C14.6055 25.9524 14.2857 25.6326 14.2857 25.2381C14.2857 24.8436 14.6055 24.5238 15 24.5238C15.3945 24.5238 15.7143 24.8436 15.7143 25.2381ZM6.19048 5C6.58497 5 6.90476 4.6802 6.90476 4.28571C6.90476 3.89123 6.58497 3.57143 6.19048 3.57143C5.79599 3.57143 5.47619 3.89123 5.47619 4.28571C5.47619 4.6802 5.79599 5 6.19048 5ZM24.2857 21.6667C24.2857 22.0612 23.9659 22.381 23.5714 22.381C23.1769 22.381 22.8571 22.0612 22.8571 21.6667C22.8571 21.2722 23.1769 20.9524 23.5714 20.9524C23.9659 20.9524 24.2857 21.2722 24.2857 21.6667ZM0.714286 13.8095C1.10877 13.8095 1.42857 13.4897 1.42857 13.0952C1.42857 12.7008 1.10877 12.381 0.714286 12.381C0.319797 12.381 0 12.7008 0 13.0952C0 13.4897 0.319797 13.8095 0.714286 13.8095ZM5.2381 13.0952C5.2381 13.4897 4.9183 13.8095 4.52381 13.8095C4.12932 13.8095 3.80953 13.4897 3.80953 13.0952C3.80953 12.7008 4.12932 12.381 4.52381 12.381C4.9183 12.381 5.2381 12.7008 5.2381 13.0952ZM5 16.4286C5.39449 16.4286 5.71429 16.1088 5.71429 15.7143C5.71429 15.3198 5.39449 15 5 15C4.60551 15 4.28572 15.3198 4.28572 15.7143C4.28572 16.1088 4.60551 16.4286 5 16.4286ZM6.90476 18.3333C6.90476 18.7278 6.58497 19.0476 6.19048 19.0476C5.79599 19.0476 5.47619 18.7278 5.47619 18.3333C5.47619 17.9388 5.79599 17.619 6.19048 17.619C6.58497 17.619 6.90476 17.9388 6.90476 18.3333ZM8.09524 21.1905C8.48973 21.1905 8.80953 20.8707 8.80953 20.4762C8.80953 20.0817 8.48973 19.7619 8.09524 19.7619C7.70075 19.7619 7.38095 20.0817 7.38095 20.4762C7.38095 20.8707 7.70075 21.1905 8.09524 21.1905ZM10.7143 22.1429C10.7143 22.5373 10.3945 22.8571 10 22.8571C9.60551 22.8571 9.28571 22.5373 9.28571 22.1429C9.28571 21.7484 9.60551 21.4286 10 21.4286C10.3945 21.4286 10.7143 21.7484 10.7143 22.1429ZM13.0952 23.5714C13.4897 23.5714 13.8095 23.2516 13.8095 22.8571C13.8095 22.4627 13.4897 22.1429 13.0952 22.1429C12.7008 22.1429 12.381 22.4627 12.381 22.8571C12.381 23.2516 12.7008 23.5714 13.0952 23.5714ZM16.4286 23.3333C16.4286 23.7278 16.1088 24.0476 15.7143 24.0476C15.3198 24.0476 15 23.7278 15 23.3333C15 22.9388 15.3198 22.619 15.7143 22.619C16.1088 22.619 16.4286 22.9388 16.4286 23.3333ZM18.5714 23.5714C18.9659 23.5714 19.2857 23.2516 19.2857 22.8571C19.2857 22.4627 18.9659 22.1429 18.5714 22.1429C18.1769 22.1429 17.8571 22.4627 17.8571 22.8571C17.8571 23.2516 18.1769 23.5714 18.5714 23.5714ZM21.4286 21.4286C21.4286 21.8231 21.1088 22.1429 20.7143 22.1429C20.3198 22.1429 20 21.8231 20 21.4286C20 21.0341 20.3198 20.7143 20.7143 20.7143C21.1088 20.7143 21.4286 21.0341 21.4286 21.4286ZM23.0952 20.2381C23.4897 20.2381 23.8095 19.9183 23.8095 19.5238C23.8095 19.1293 23.4897 18.8095 23.0952 18.8095C22.7008 18.8095 22.381 19.1293 22.381 19.5238C22.381 19.9183 22.7008 20.2381 23.0952 20.2381ZM25 17.1429C25 17.5373 24.6802 17.8571 24.2857 17.8571C23.8912 17.8571 23.5714 17.5373 23.5714 17.1429C23.5714 16.7484 23.8912 16.4286 24.2857 16.4286C24.6802 16.4286 25 16.7484 25 17.1429ZM25 15.2381C25.3945 15.2381 25.7143 14.9183 25.7143 14.5238C25.7143 14.1293 25.3945 13.8095 25 13.8095C24.6055 13.8095 24.2857 14.1293 24.2857 14.5238C24.2857 14.9183 24.6055 15.2381 25 15.2381ZM5.71429 10.2381C5.71429 10.6326 5.39449 10.9524 5 10.9524C4.60551 10.9524 4.28572 10.6326 4.28572 10.2381C4.28572 9.84361 4.60551 9.52381 5 9.52381C5.39449 9.52381 5.71429 9.84361 5.71429 10.2381ZM6.19048 8.33333C6.58497 8.33333 6.90476 8.01354 6.90476 7.61905C6.90476 7.22456 6.58497 6.90476 6.19048 6.90476C5.79599 6.90476 5.47619 7.22456 5.47619 7.61905C5.47619 8.01354 5.79599 8.33333 6.19048 8.33333ZM8.80953 5.47619C8.80953 5.87068 8.48973 6.19047 8.09524 6.19047C7.70075 6.19047 7.38095 5.87068 7.38095 5.47619C7.38095 5.0817 7.70075 4.7619 8.09524 4.7619C8.48973 4.7619 8.80953 5.0817 8.80953 5.47619ZM10 4.52381C10.3945 4.52381 10.7143 4.20401 10.7143 3.80952C10.7143 3.41503 10.3945 3.09524 10 3.09524C9.60551 3.09524 9.28571 3.41503 9.28571 3.80952C9.28571 4.20401 9.60551 4.52381 10 4.52381ZM13.8095 3.09524C13.8095 3.48973 13.4897 3.80953 13.0952 3.80953C12.7008 3.80953 12.381 3.48973 12.381 3.09524C12.381 2.70075 12.7008 2.38095 13.0952 2.38095C13.4897 2.38095 13.8095 2.70075 13.8095 3.09524ZM15.7143 3.33333C16.1088 3.33333 16.4286 3.01354 16.4286 2.61905C16.4286 2.22456 16.1088 1.90476 15.7143 1.90476C15.3198 1.90476 15 2.22456 15 2.61905C15 3.01354 15.3198 3.33333 15.7143 3.33333ZM19.2857 3.09524C19.2857 3.48973 18.9659 3.80953 18.5714 3.80953C18.1769 3.80953 17.8571 3.48973 17.8571 3.09524C17.8571 2.70075 18.1769 2.38095 18.5714 2.38095C18.9659 2.38095 19.2857 2.70075 19.2857 3.09524ZM20.7143 5.2381C21.1088 5.2381 21.4286 4.9183 21.4286 4.52381C21.4286 4.12932 21.1088 3.80953 20.7143 3.80953C20.3198 3.80953 20 4.12932 20 4.52381C20 4.9183 20.3198 5.2381 20.7143 5.2381ZM23.8095 6.42857C23.8095 6.82306 23.4897 7.14286 23.0952 7.14286C22.7008 7.14286 22.381 6.82306 22.381 6.42857C22.381 6.03408 22.7008 5.71428 23.0952 5.71428C23.4897 5.71428 23.8095 6.03408 23.8095 6.42857ZM24.2857 9.52381C24.6802 9.52381 25 9.20401 25 8.80953C25 8.41504 24.6802 8.09524 24.2857 8.09524C23.8912 8.09524 23.5714 8.41504 23.5714 8.80953C23.5714 9.20401 23.8912 9.52381 24.2857 9.52381ZM25.7143 11.4286C25.7143 11.8231 25.3945 12.1429 25 12.1429C24.6055 12.1429 24.2857 11.8231 24.2857 11.4286C24.2857 11.0341 24.6055 10.7143 25 10.7143C25.3945 10.7143 25.7143 11.0341 25.7143 11.4286ZM23.0952 13.8095C23.4897 13.8095 23.8095 13.4897 23.8095 13.0952C23.8095 12.7008 23.4897 12.381 23.0952 12.381C22.7008 12.381 22.381 12.7008 22.381 13.0952C22.381 13.4897 22.7008 13.8095 23.0952 13.8095ZM7.61905 13.0952C7.61905 13.4897 7.29925 13.8095 6.90476 13.8095C6.51027 13.8095 6.19048 13.4897 6.19048 13.0952C6.19048 12.7008 6.51027 12.381 6.90476 12.381C7.29925 12.381 7.61905 12.7008 7.61905 13.0952ZM22.619 10.9524C23.0135 10.9524 23.3333 10.6326 23.3333 10.2381C23.3333 9.84361 23.0135 9.52381 22.619 9.52381C22.2246 9.52381 21.9048 9.84361 21.9048 10.2381C21.9048 10.6326 22.2246 10.9524 22.619 10.9524ZM7.61905 15.7143C7.61905 16.1088 7.29925 16.4286 6.90476 16.4286C6.51027 16.4286 6.19048 16.1088 6.19048 15.7143C6.19048 15.3198 6.51027 15 6.90476 15C7.29925 15 7.61905 15.3198 7.61905 15.7143ZM21.1905 8.33333C21.585 8.33333 21.9048 8.01354 21.9048 7.61905C21.9048 7.22456 21.585 6.90476 21.1905 6.90476C20.796 6.90476 20.4762 7.22456 20.4762 7.61905C20.4762 8.01354 20.796 8.33333 21.1905 8.33333ZM9.52381 18.3333C9.52381 18.7278 9.20401 19.0476 8.80953 19.0476C8.41504 19.0476 8.09524 18.7278 8.09524 18.3333C8.09524 17.9388 8.41504 17.619 8.80953 17.619C9.20401 17.619 9.52381 17.9388 9.52381 18.3333ZM19.0476 6.42857C19.4421 6.42857 19.7619 6.10877 19.7619 5.71429C19.7619 5.3198 19.4421 5 19.0476 5C18.6531 5 18.3333 5.3198 18.3333 5.71429C18.3333 6.10877 18.6531 6.42857 19.0476 6.42857ZM11.4286 20.2381C11.4286 20.6326 11.1088 20.9524 10.7143 20.9524C10.3198 20.9524 10 20.6326 10 20.2381C10 19.8436 10.3198 19.5238 10.7143 19.5238C11.1088 19.5238 11.4286 19.8436 11.4286 20.2381ZM16.1905 5.71429C16.585 5.71429 16.9048 5.39449 16.9048 5C16.9048 4.60551 16.585 4.28572 16.1905 4.28572C15.796 4.28572 15.4762 4.60551 15.4762 5C15.4762 5.39449 15.796 5.71429 16.1905 5.71429ZM14.2857 20.9524C14.2857 21.3469 13.9659 21.6667 13.5714 21.6667C13.1769 21.6667 12.8571 21.3469 12.8571 20.9524C12.8571 20.5579 13.1769 20.2381 13.5714 20.2381C13.9659 20.2381 14.2857 20.5579 14.2857 20.9524ZM13.5714 5.71429C13.9659 5.71429 14.2857 5.39449 14.2857 5C14.2857 4.60551 13.9659 4.28572 13.5714 4.28572C13.1769 4.28572 12.8571 4.60551 12.8571 5C12.8571 5.39449 13.1769 5.71429 13.5714 5.71429ZM16.9048 20.9524C16.9048 21.3469 16.585 21.6667 16.1905 21.6667C15.796 21.6667 15.4762 21.3469 15.4762 20.9524C15.4762 20.5579 15.796 20.2381 16.1905 20.2381C16.585 20.2381 16.9048 20.5579 16.9048 20.9524ZM10.7143 6.42857C11.1088 6.42857 11.4286 6.10877 11.4286 5.71429C11.4286 5.3198 11.1088 5 10.7143 5C10.3198 5 10 5.3198 10 5.71429C10 6.10877 10.3198 6.42857 10.7143 6.42857ZM19.7619 20.2381C19.7619 20.6326 19.4421 20.9524 19.0476 20.9524C18.6531 20.9524 18.3333 20.6326 18.3333 20.2381C18.3333 19.8436 18.6531 19.5238 19.0476 19.5238C19.4421 19.5238 19.7619 19.8436 19.7619 20.2381ZM8.80953 8.33333C9.20401 8.33333 9.52381 8.01354 9.52381 7.61905C9.52381 7.22456 9.20401 6.90476 8.80953 6.90476C8.41504 6.90476 8.09524 7.22456 8.09524 7.61905C8.09524 8.01354 8.41504 8.33333 8.80953 8.33333ZM21.9048 18.3333C21.9048 18.7278 21.585 19.0476 21.1905 19.0476C20.796 19.0476 20.4762 18.7278 20.4762 18.3333C20.4762 17.9388 20.796 17.619 21.1905 17.619C21.585 17.619 21.9048 17.9388 21.9048 18.3333ZM6.90476 10.9524C7.29925 10.9524 7.61905 10.6326 7.61905 10.2381C7.61905 9.84361 7.29925 9.52381 6.90476 9.52381C6.51027 9.52381 6.19048 9.84361 6.19048 10.2381C6.19048 10.6326 6.51027 10.9524 6.90476 10.9524ZM23.3333 15.7143C23.3333 16.1088 23.0135 16.4286 22.619 16.4286C22.2246 16.4286 21.9048 16.1088 21.9048 15.7143C21.9048 15.3198 22.2246 15 22.619 15C23.0135 15 23.3333 15.3198 23.3333 15.7143ZM21.1905 13.8095C21.585 13.8095 21.9048 13.4897 21.9048 13.0952C21.9048 12.7008 21.585 12.381 21.1905 12.381C20.796 12.381 20.4762 12.7008 20.4762 13.0952C20.4762 13.4897 20.796 13.8095 21.1905 13.8095ZM9.52381 13.0952C9.52381 13.4897 9.20401 13.8095 8.80953 13.8095C8.41504 13.8095 8.09524 13.4897 8.09524 13.0952C8.09524 12.7008 8.41504 12.381 8.80953 12.381C9.20401 12.381 9.52381 12.7008 9.52381 13.0952ZM19.2857 9.28572C19.6802 9.28572 20 8.96592 20 8.57143C20 8.17694 19.6802 7.85714 19.2857 7.85714C18.8912 7.85714 18.5714 8.17694 18.5714 8.57143C18.5714 8.96592 18.8912 9.28572 19.2857 9.28572ZM11.1905 17.3809C11.1905 17.7754 10.8707 18.0952 10.4762 18.0952C10.0817 18.0952 9.76191 17.7754 9.76191 17.3809C9.76191 16.9865 10.0817 16.6667 10.4762 16.6667C10.8707 16.6667 11.1905 16.9865 11.1905 17.3809ZM15 7.61905C15.3945 7.61905 15.7143 7.29925 15.7143 6.90476C15.7143 6.51027 15.3945 6.19048 15 6.19048C14.6055 6.19048 14.2857 6.51027 14.2857 6.90476C14.2857 7.29925 14.6055 7.61905 15 7.61905ZM15.7143 19.0476C15.7143 19.4421 15.3945 19.7619 15 19.7619C14.6055 19.7619 14.2857 19.4421 14.2857 19.0476C14.2857 18.6531 14.6055 18.3333 15 18.3333C15.3945 18.3333 15.7143 18.6531 15.7143 19.0476ZM10.4762 9.28572C10.8707 9.28572 11.1905 8.96592 11.1905 8.57143C11.1905 8.17694 10.8707 7.85714 10.4762 7.85714C10.0817 7.85714 9.76191 8.17694 9.76191 8.57143C9.76191 8.96592 10.0817 9.28572 10.4762 9.28572ZM20 17.3809C20 17.7754 19.6802 18.0952 19.2857 18.0952C18.8912 18.0952 18.5714 17.7754 18.5714 17.3809C18.5714 16.9865 18.8912 16.6667 19.2857 16.6667C19.6802 16.6667 20 16.9865 20 17.3809ZM10.7143 13.8095C11.1088 13.8095 11.4286 13.4897 11.4286 13.0952C11.4286 12.7008 11.1088 12.381 10.7143 12.381C10.3198 12.381 10 12.7008 10 13.0952C10 13.4897 10.3198 13.8095 10.7143 13.8095Z" fill="#4BA459"/>
</svg>
